<svg xmlns="http://www.w3.org/2000/svg" viewBox="0 0 512 512" role="img" aria-labelledby="title desc">
  <title id="title">Mantecas Garaje</title>
  <desc id="desc">Logotipo con machete y llave inglesa cruzados</desc>
  <rect width="512" height="512" fill="none" />

  <text x="256" y="72" text-anchor="middle" font-family="'Cinzel','Georgia',serif" font-size="46" font-weight="700" letter-spacing="4" fill="#0f0f0f">MANTECAS</text>
  <text x="256" y="474" text-anchor="middle" font-family="'Cinzel','Georgia',serif" font-size="44" font-weight="700" letter-spacing="4" fill="#0f0f0f">GARAJE</text>

  <g transform="translate(240 240) rotate(-45)">
    <rect x="-14" y="10" width="28" height="200" rx="12" fill="#0f0f0f" />
    <path d="M -20 52 C 52 20 88 -52 66 -122 C 42 -80 4 -26 -42 54 Z" fill="#0f0f0f" />
    <circle cx="0" cy="170" r="6" fill="#f6c452" />
  </g>

  <g transform="translate(288 224) rotate(45)">
    <rect x="-14" y="-130" width="28" height="230" rx="12" fill="#0f0f0f" />
    <path d="M -20 -120 C 18 -134 60 -102 60 -66 L 38 -42 L 60 -18 L 32 10 L 12 -6 L -12 20 C -44 20 -72 -10 -72 -42 C -72 -78 -46 -112 -20 -120 Z" fill="#0f0f0f" />
  </g>
</svg>
